HIERARCHY
ROOT Hips
{
	OFFSET -0.001795 -0.223333 0.028219
	CHANNELS 6 Xposition Yposition Zposition Zrotation Yrotation Xrotation 
	JOINT LeftUpLeg
	{
		OFFSET 0.069520 -0.091406 -0.006815
		CHANNELS 3 Zrotation Yrotation Xrotation
		JOINT LeftLeg
		{
			OFFSET 0.034277 -0.375199 -0.004496
			CHANNELS 3 Zrotation Yrotation Xrotation
			JOINT LeftFoot
			{
				OFFSET -0.013596 -0.397961 -0.043693
				CHANNELS 3 Zrotation Yrotation Xrotation
				JOINT LeftToe
				{
					OFFSET 0.026358 -0.055791 0.119288
					CHANNELS 3 Zrotation Yrotation Xrotation
					End Site
					{
						OFFSET 0.000000 0.000000 0.000000
					}
				}
			}
		}
	}
	JOINT RightUpLeg
	{
		OFFSET -0.067670 -0.090522 -0.004320
		CHANNELS 3 Zrotation Yrotation Xrotation
		JOINT RightLeg
		{
			OFFSET -0.038290 -0.382569 -0.008850
			CHANNELS 3 Zrotation Yrotation Xrotation
			JOINT RightFoot
			{
				OFFSET 0.015774 -0.398415 -0.042312
				CHANNELS 3 Zrotation Yrotation Xrotation
				JOINT RightToe
				{
					OFFSET -0.025372 -0.048144 0.123348
					CHANNELS 3 Zrotation Yrotation Xrotation
					End Site
					{
						OFFSET 0.000000 0.000000 0.000000
					}
				}
			}
		}
	}
	JOINT Spine
	{
		OFFSET -0.002533 0.108963 -0.026696
		CHANNELS 3 Zrotation Yrotation Xrotation
		JOINT Spine1
		{
			OFFSET 0.005487 0.135180 0.001092
			CHANNELS 3 Zrotation Yrotation Xrotation
			JOINT Spine2
			{
				OFFSET 0.001457 0.052922 0.025425
				CHANNELS 3 Zrotation Yrotation Xrotation
				JOINT Neck
				{
					OFFSET -0.002778 0.213870 -0.042857
					CHANNELS 3 Zrotation Yrotation Xrotation
					JOINT Head
					{
						OFFSET 0.005152 0.064970 0.051349
						CHANNELS 3 Zrotation Yrotation Xrotation
						End Site
						{
							OFFSET 0.000000 0.000000 0.000000
						}
					}
				}
				JOINT LeftShoulder
				{
					OFFSET 0.078845 0.121749 -0.034090
					CHANNELS 3 Zrotation Yrotation Xrotation
					JOINT LeftArm
					{
						OFFSET 0.090977 0.030469 -0.008868
						CHANNELS 3 Zrotation Yrotation Xrotation
						JOINT LeftForeArm
						{
							OFFSET 0.259612 -0.012772 -0.027456
							CHANNELS 3 Zrotation Yrotation Xrotation
							JOINT LeftHand
							{
								OFFSET 0.249234 0.008986 -0.001171
								CHANNELS 3 Zrotation Yrotation Xrotation
								End Site
								{
									OFFSET 0.000000 0.000000 0.000000
								}
							}
						}
					}
				}
				JOINT RightShoulder
				{
					OFFSET -0.081759 0.118833 -0.038615
					CHANNELS 3 Zrotation Yrotation Xrotation
					JOINT RightArm
					{
						OFFSET -0.096012 0.032551 -0.009143
						CHANNELS 3 Zrotation Yrotation Xrotation
						JOINT RightForeArm
						{
							OFFSET -0.253742 -0.013329 -0.021401
							CHANNELS 3 Zrotation Yrotation Xrotation
							JOINT RightHand
							{
								OFFSET -0.255298 0.007772 -0.005559
								CHANNELS 3 Zrotation Yrotation Xrotation
								End Site
								{
									OFFSET 0.000000 0.000000 0.000000
								}
							}
						}
					}
				}
			}
		}
	}
}
MOTION
Frames: 7
Frame Time: 0.050000
-0.004552 0.938764 1.936253 -3.690174 15.317658 2.566774 4.449447 -0.045571 6.624250 4.257147 -1.738952 13.726810 -5.195624 -8.065130 3.387100 0.000000 0.000000 0.000000 -2.878058 0.954871 -30.430367 -2.100251 0.676470 14.051654 3.929891 1.455846 21.229032 0.000000 0.000000 0.000000 0.914436 -3.409396 33.536023 -3.034602 1.594293 -25.631316 -2.302082 -3.820401 26.807106 7.925366 -2.621548 -25.079433 0.000000 0.000000 0.000000 -17.202226 -6.453649 1.425025 -38.155932 -13.839339 -2.140485 19.916862 -64.359875 -9.906050 0.000000 0.000000 0.000000 24.664488 -4.719165 -2.956449 48.193807 -14.958511 -12.501961 11.423718 35.975646 5.599102 0.000000 0.000000 0.000000 
-0.001736 0.926288 1.999031 -3.207716 15.130996 2.547160 4.778659 -0.069220 7.172998 3.903927 -2.483184 20.008588 -5.721671 -7.424501 5.545328 0.000000 0.000000 0.000000 -2.327803 1.112445 -31.193474 -2.863857 0.921850 20.606576 4.985559 3.810187 18.794460 0.000000 0.000000 0.000000 2.924488 -3.742313 31.843060 -3.395166 1.668032 -25.925263 -3.222120 -3.934415 27.067659 6.819114 -2.121613 -24.047294 0.000000 0.000000 0.000000 -17.601688 -5.709838 1.046368 -38.214660 -12.241314 -2.645056 15.493950 -68.831064 -7.725475 0.000000 0.000000 0.000000 25.144328 -5.379579 -3.407956 46.406399 -17.210251 -12.820858 11.648622 34.894173 5.416608 0.000000 0.000000 0.000000 
0.001958 0.916932 2.059250 -3.084104 15.145450 1.961985 4.597502 -0.116063 3.418584 4.184671 -4.780709 32.936008 -8.444134 -7.396956 12.636283 0.000000 0.000000 0.000000 -1.789019 1.269215 -29.389241 -2.062083 0.558567 26.203230 3.879763 4.363111 11.759984 0.000000 0.000000 0.000000 5.384684 -4.578479 32.103740 -3.668537 1.711720 -26.325648 -2.905937 -2.066050 28.416779 7.899534 -2.113129 -26.667321 0.000000 0.000000 0.000000 -18.526043 -5.759078 0.569482 -39.836602 -11.193150 -3.015298 5.071269 -69.911522 -0.991307 0.000000 0.000000 0.000000 25.603629 -6.538551 -3.549620 46.584898 -16.010988 -12.692772 9.815543 34.617199 5.004419 0.000000 0.000000 0.000000 
0.007609 0.911970 2.112010 -1.913021 14.370630 2.657882 3.498410 -0.392658 -4.206524 2.920597 -6.911397 46.545895 -12.930474 -8.570611 22.623683 0.000000 0.000000 0.000000 -1.361788 1.440168 -28.791754 -3.292237 1.003898 30.440805 2.603098 3.720922 6.430482 0.000000 0.000000 0.000000 5.846325 -4.857504 33.208225 -3.994884 1.737783 -27.007821 -2.550020 -0.300639 28.552870 8.157216 -2.075189 -26.355138 0.000000 0.000000 0.000000 -18.803228 -6.367141 0.534862 -42.254213 -10.349298 -3.344988 -2.954031 -64.209317 3.958485 0.000000 0.000000 0.000000 25.998773 -5.443260 -2.449234 46.590933 -13.573551 -11.973414 5.712060 35.431872 3.965268 0.000000 0.000000 0.000000 
0.015435 0.915622 2.159894 -0.605948 11.544935 4.258005 3.293369 -0.860671 -10.712976 -0.188794 -5.425902 52.549680 -12.507040 -7.050574 25.314139 0.000000 0.000000 0.000000 -1.392878 1.619021 -26.683645 -4.754263 1.862805 29.350067 2.918197 5.698816 3.305740 0.000000 0.000000 0.000000 4.871398 -4.254434 33.397227 -2.643701 1.416213 -26.800031 -2.168782 3.167120 27.463384 7.561904 -1.481990 -25.166536 0.000000 0.000000 0.000000 -20.256217 -6.099610 -0.396316 -43.346445 -7.890938 -3.879972 -7.116797 -54.843952 5.085487 0.000000 0.000000 0.000000 25.184146 -2.885480 -0.176735 46.018101 -8.230554 -10.045635 0.621467 35.990179 2.569208 0.000000 0.000000 0.000000 
0.025257 0.922829 2.205535 0.530790 10.835442 4.308729 3.605089 -1.319408 -16.328233 -1.521912 -4.275943 52.090754 -6.117256 -3.645450 14.153883 0.000000 0.000000 0.000000 -2.085780 1.378608 -22.581563 -5.495825 2.146025 27.785528 2.883903 6.226632 2.113865 0.000000 0.000000 0.000000 4.257931 -4.122959 34.484272 -1.808570 1.242511 -27.224969 -2.274505 5.233546 27.250085 7.529357 -1.501287 -23.032315 0.000000 0.000000 0.000000 -21.997880 -5.998294 -1.249207 -44.510595 -4.232014 -4.983811 -5.550746 -48.060264 3.506486 0.000000 0.000000 0.000000 25.778867 -2.086444 0.878602 44.062569 -3.848558 -8.421831 -1.824866 37.208047 2.003058 0.000000 0.000000 0.000000 
0.037063 0.932357 2.250689 1.170403 8.501262 5.281635 4.626787 -1.609730 -21.691625 -2.259745 -2.487383 46.532170 -0.197869 0.867103 2.390170 0.000000 0.000000 0.000000 -2.697924 1.209031 -18.473726 -5.844796 2.281222 23.782748 3.205196 7.221472 1.750652 0.000000 0.000000 0.000000 3.074337 -3.405565 34.196332 -4.355426 1.693793 -27.649864 -1.151865 6.511582 27.712191 8.171044 -1.672485 -24.357221 0.000000 0.000000 0.000000 -21.737815 -6.109949 -1.138657 -45.079230 -0.621462 -6.374685 -5.740478 -45.748447 3.424105 0.000000 0.000000 0.000000 26.530968 -1.918570 1.016383 43.446824 0.515850 -7.030098 -1.881107 41.400508 2.365313 0.000000 0.000000 0.000000 
